# xmcd
#
# Track frame offsets:
# 150
# 17251
# 33975
# 51319
# 69232
# 88955
# 107867
# 133787
# 155149
# 168726
# 186741
# 214365
# 232927
# 248432
# 260357
# 270054
#
# Disc length: 3729 seconds
#
#
# Revision: 0
# Processed by: cddbd v1.5.1PL0 Copyright (c) Steve Scherf et al.
# Submitted via: FreeRIP 2.941 
#
DISCID=df0e8f10
DTITLE=Various Artist - Practice Songs
DYEAR=2005
DGENRE=Bluegrass
TTITLE0=Touch You For A While
TTITLE1=Lucky One
TTITLE2=Leather And Lace
TTITLE3=Fire On The Mountain
TTITLE4=Amy
TTITLE5=Long Time Gone
TTITLE6=Traveling Soldier
TTITLE7=Lover Of Mine
TTITLE8=Teach Your Children
TTITLE9=Sorrowful Angel
TTITLE10=Never Leave Harlan Alive
TTITLE11=Don't Know Who I Am
TTITLE12=Friend Of The Devil
TTITLE13=Henry
TTITLE14=Norwegian Wood
TTITLE15=I've Just Seen A Face
EXTD=
EXTT0=
EXTT1=
EXTT2=
EXTT3=
EXTT4=
EXTT5=
EXTT6=
EXTT7=
EXTT8=
EXTT9=
EXTT10=
EXTT11=
EXTT12=
EXTT13=
EXTT14=
EXTT15=
PLAYORDER=
